<?xml version="1.0" encoding="UTF-8"?><svg id="Layer_2" xmlns="http://www.w3.org/2000/svg" viewBox="0 0 200 100"><defs><style>.cls-1{fill:#999591;}.cls-2{fill:#24282e;}.cls-3{fill:#0c1016;}.cls-4{fill:#404596;}.cls-5{fill:#7482bf;}</style></defs><path class="cls-4" d="m83.63,35.92c-1.04,0-1.92-.87-1.92-1.92v-7.83c0-1.04.87-1.92,1.92-1.92h32.73c1.04,0,1.92.87,1.92,1.92v7.83c0,1.04-.87,1.92-1.92,1.92h-32.73Z"/><path class="cls-5" d="m100,63.95c-4,0-7.66-1.74-8.36-2.09l-6.96-11.66v-9.4l-1.57-1.57V13.11c5.22-7.31,16.54-7.49,16.71-7.49s11.49.17,16.71,7.49v26.11l-1.57,1.57v9.4l-6.96,11.66c-.35.35-4,2.09-8.01,2.09Z"/><path class="cls-2" d="m100,5.8c.17,0,11.14.17,16.37,7.31v25.94l-1.39,1.39-.17.17v9.4l-6.79,11.49c-.87.35-4.18,1.92-8.01,1.92s-7.14-1.57-8.01-1.92l-6.79-11.49v-9.4l-.17-.17-1.39-1.39V13.11c5.22-6.96,16.19-7.31,16.37-7.31m0-.7s-11.66,0-17.06,7.83v26.46l1.57,1.57v9.4l6.96,11.84s4,2.09,8.53,2.09,8.53-2.09,8.53-2.09l6.96-11.84v-9.4l1.57-1.57V12.94c-5.4-7.83-17.06-7.83-17.06-7.83h0Z"/><path class="cls-4" d="m116.71,33.13v-15.84c-2.61-2.96-9.92-4.7-10.27-4.87l-.35-.17-1.74,14.45-4.35,1.39-4.35-1.39-1.57-14.28-.35.17c-.35,0-7.83,1.92-10.45,4.7v.17-4.35c5.4-7.49,16.71-7.49,16.71-7.49.17,0,11.49.17,16.71,7.49v20.02h0Z"/><path class="cls-3" d="m100,5.8c.17,0,11.14.17,16.37,7.31v3.31c-3.13-2.61-9.58-4.18-9.92-4.35l-.87-.17-.17.87-1.57,13.58-3.83,1.39-4-1.39-1.57-13.58-.17-.87-.7.17c-.35,0-6.79,1.74-9.92,4.35v-3.31c5.22-6.96,16.19-7.31,16.37-7.31m0-.7s-11.66,0-17.06,7.83v26.46l.7-6.27v-15.49c2.61-2.79,10.1-4.7,10.1-4.7l1.57,14.1,4.7,1.57,4.7-1.57,1.57-14.1s7.49,1.92,10.1,4.7v15.49l.87,6.27V12.94c-5.57-7.83-17.24-7.83-17.24-7.83h0Z"/><path class="cls-4" d="m100,63.95c-4,0-7.66-1.74-8.36-2.09l-.17-.35h4l2.44-3.13h3.83l2.44,3.13h4l3.66-6.27-1.74-1.39c-.7-1.39-.52-2.96.35-4.18l4.7-7.31v7.83l-6.96,11.66c-.52.35-4.18,1.92-8.18,2.09h0Zm-15.15-13.75v-8.01l4.7,7.31c.87,1.22,1.04,2.96.35,4.35l-1.92,1.57,1.74,2.96-4.87-8.18h0Z"/><path class="cls-3" d="m85.2,43.58l4,6.27c.7,1.04.87,2.61.35,3.83l-1.57,1.22-2.79-4.87v-6.44m29.6,0v6.44l-2.79,4.7-1.57-1.22c-.52-1.22-.35-2.61.35-3.83l4-6.09m-13.06,15.15l2.26,2.79.17.35h2.79c-1.39.52-4.18,1.57-7.14,1.57s-5.75-.87-7.14-1.57h2.96l.17-.35,2.26-2.79h3.66m13.75-17.76l-5.4,8.36c-.87,1.39-1.04,3.13-.35,4.7l1.74,1.39-3.31,5.75h-3.48l-2.61-3.13h-4.35l-2.44,3.13h-3.66l-3.31-5.75,1.74-1.39c.7-1.57.7-3.31-.35-4.7l-5.4-8.36v9.4l6.96,11.84s4,2.09,8.53,2.09,8.53-2.09,8.53-2.09l6.96-11.84v-9.4h.17Z"/><path class="cls-3" d="m101.57,36.27l10.97-1.57,1.57,1.57-3.13,3.13h-6.27l-3.13-3.13h0Z"/><path class="cls-3" d="m98.43,36.27l-10.97-1.57-1.57,1.57,3.13,3.13h6.27l3.13-3.13h0Z"/><path class="cls-3" d="m116.54,33.83h-4l-10.45,1.57h-4l-10.27-1.57h-4.18l-.17.87h4l10.1,1.57h4.53l10.27-1.57h4.18v-.87h0Zm-22.81,23.16l1.92-2.79h8.53l1.92,2.79,3.13-4.87c0-.7,0-1.22.35-1.92l-3.31,5.4-1.57-2.26h-9.4l-1.57,2.26-3.31-5.4c.17.7.35,1.22.35,1.92l2.96,4.87h0Z"/><path class="cls-1" d="m75.32,90.55c-1.21,0-2.3-.23-3.26-.7-.96-.46-1.78-1.12-2.46-1.97-.67-.85-1.19-1.85-1.55-3.01-.36-1.16-.54-2.44-.54-3.84v-.27c0-1.39.18-2.67.54-3.84.36-1.17.87-2.17,1.55-3.02.67-.85,1.49-1.51,2.46-1.97.96-.46,2.05-.7,3.26-.7,1.28,0,2.41.23,3.38.7.97.46,1.79,1.12,2.44,1.97.66.85,1.15,1.86,1.49,3.02.33,1.17.5,2.45.5,3.84v.27c0,1.4-.17,2.68-.5,3.84-.34,1.16-.83,2.17-1.49,3.01-.66.85-1.47,1.5-2.44,1.97-.97.46-2.1.7-3.38.7Zm0-2.12c1.25,0,2.25-.31,3.02-.93s1.34-1.49,1.7-2.6c.36-1.11.54-2.41.54-3.88v-.3c0-1.46-.18-2.75-.55-3.85-.37-1.11-.94-1.97-1.71-2.59-.77-.62-1.78-.93-3-.93-1.13,0-2.08.31-2.86.94s-1.38,1.49-1.78,2.6-.61,2.38-.61,3.84v.3c0,1.46.2,2.75.61,3.86s1,1.98,1.78,2.61c.78.62,1.74.94,2.86.94Z"/><path class="cls-1" d="m91.3,90.55c-1.29,0-2.4-.3-3.33-.91-.93-.61-1.65-1.44-2.16-2.52-.51-1.07-.76-2.29-.76-3.67v-.28c0-1.38.25-2.6.76-3.67.51-1.07,1.23-1.91,2.16-2.52.93-.61,2.04-.92,3.31-.92s2.4.31,3.33.92c.93.61,1.65,1.45,2.16,2.52s.76,2.29.76,3.68v.28c0,1.38-.25,2.61-.76,3.68-.51,1.07-1.23,1.91-2.15,2.51-.93.6-2.03.9-3.32.9Zm0-1.99c.81,0,1.49-.22,2.03-.66.55-.44.96-1.05,1.24-1.82s.42-1.64.42-2.62v-.28c0-.98-.14-1.86-.42-2.62s-.69-1.38-1.25-1.82c-.55-.44-1.23-.67-2.05-.67s-1.49.22-2.04.67c-.55.44-.96,1.05-1.24,1.82s-.41,1.64-.41,2.62v.28c0,.98.14,1.86.41,2.62s.69,1.38,1.25,1.82c.55.44,1.24.66,2.06.66Z"/><path class="cls-1" d="m99.1,95.65v-1.64l1.97-.36v-15.33l-2.1-.36v-1.64h4.28l.23,1.7c.46-.64,1.03-1.12,1.7-1.46.67-.33,1.44-.5,2.32-.5,1.15,0,2.14.31,2.95.94.82.62,1.44,1.5,1.87,2.62.43,1.12.65,2.44.65,3.94v.27c0,1.34-.22,2.52-.65,3.52-.43,1.01-1.06,1.79-1.86,2.35s-1.78.84-2.92.84c-.86,0-1.61-.14-2.26-.43s-1.2-.72-1.66-1.28v4.81l2.22.36v1.64h-6.73Zm7.65-7.08c1.2,0,2.12-.44,2.73-1.32.62-.88.93-2.02.93-3.42v-.27c0-1.07-.14-2.01-.41-2.82-.28-.81-.69-1.45-1.23-1.92-.55-.46-1.23-.7-2.04-.7-.72,0-1.34.16-1.86.49-.52.33-.93.77-1.25,1.34v6.8c.32.58.73,1.02,1.24,1.33.51.31,1.14.47,1.89.47Z"/><path class="cls-1" d="m120.58,90.55c-.94,0-1.81-.09-2.63-.28-.82-.19-1.69-.48-2.61-.88l-.03-3.32h1.92l.48,2c.48.2.95.34,1.4.43.45.09.94.13,1.46.13,1.03,0,1.77-.2,2.22-.59.45-.4.67-.89.67-1.47,0-.55-.23-1.02-.68-1.4-.45-.38-1.27-.71-2.46-.97-1.69-.39-2.93-.91-3.72-1.55-.79-.65-1.19-1.52-1.19-2.6,0-.76.22-1.43.66-2.03s1.05-1.07,1.83-1.43c.78-.35,1.69-.53,2.73-.53s1.96.12,2.72.36c.75.24,1.41.56,1.97.97l.13,3.19h-1.91l-.41-1.86c-.3-.22-.66-.4-1.07-.52-.41-.12-.89-.18-1.42-.18-.79,0-1.43.18-1.93.55-.5.37-.74.83-.74,1.39,0,.33.07.61.21.85.14.24.42.46.82.65s1,.39,1.78.57c1.94.46,3.3,1.04,4.07,1.74.77.71,1.16,1.57,1.16,2.61,0,1.18-.44,2.17-1.31,2.96-.87.8-2.25,1.19-4.12,1.19Z"/><path class="cls-1" d="m129.01,84.12v-12.62h2.54v12.62h-2.54Zm0,6.17v-2.63h2.54v2.63h-2.54Z"/></svg>